<svg xmlns="http://www.w3.org/2000/svg" viewBox="0 0 50.61 33.808" height="127.78" width="191.281"><path d="M4.29 19.055c-.858-.072-2.313.039-3.081-.632-.769-.67-1.113-1.999-.08-3.231 1.034-1.233 2.522-.976 3.48-.356M44.764 17.727c1.08-.926 1.72-2.636 3.34-2.717 1.603-.118 2.637 2.055 1.569 3.441-1.015 1.2-2.147 1.313-3.614 1.607l-.551.033" fill="#ffdfc2" fill-opacity=".99"/><path d="M44.764 17.727c-2.425-6.612-5.301-10.636-10.305-13.593C30.123 1.572 26.024.36 20.959.513 13.164.63 7.976 5.125 5.456 11.76c-1.42 3.678-1.78 8.02.142 11.42 2.395 4.892 7.434 7.895 12.611 9.045 5.749 1.55 11.09 1.417 16.447-.252 5.976-1.903 11.444-5.274 10.839-11.162a11.079 11.079 0 0 0-.731-3.084z" fill="#ffdfc2" fill-opacity=".99"/><path d="M4.656 13.277c1.157-4.789 3.485-8.133 7.956-10.613 2.27-1.127 4.862-1.714 7.326-2.13 3.695.227 7.555.303 11.016 1.739 3.494 1.77 6.916 3.854 9.3 7.045 1.81 2.182 1.678 1.5 2.786 4.1.373 3.026-1.237.947-2.702 3.251-2.441.019-7.614-1.477-10.763-.413-1.91-.962-3.205-1.679-5.67-.662-2.997-1.624-4.825 2.207-7.56.048-.24-2.016-2.606-.789-5.215-1.618-1.838.103-5.239 1.802-6.474-.747" fill="#fd5"/><path d="M41.528 28.73c-1.373-.117-2.91-.866-3.054-2.402-.397-1.409.37-2.822 1.572-3.55 1.24-.888 3.171-1.364 4.43-.272.993.957.647 2.593-.335 3.422-1.119.695-1.462 2.347-2.613 2.801zM11.716 29.532c1.584.187 2.564-1.747 2.045-3.103-.532-1.955-2.13-3.415-3.76-4.503-1.527-1.09-3.645.205-3.21 2.087.063 2.03 1.918 3.186 3.118 4.576.491.363 1.094 1.594 1.807.943z" opacity=".8" fill="#f79c89" fill-opacity=".475"/><path d="M44.764 17.727c-2.425-6.612-5.301-10.636-10.305-13.593C30.123 1.572 26.024.36 20.959.513 13.164.63 7.976 5.125 5.456 11.76c-1.42 3.678-1.78 8.02.142 11.42 2.395 4.892 7.434 7.895 12.611 9.045 5.749 1.55 11.09 1.417 16.447-.252 5.976-1.903 11.444-5.274 10.839-11.162a11.079 11.079 0 0 0-.731-3.084z" fill="none" stroke="#000" stroke-linecap="round" stroke-linejoin="round"/><path d="M4.29 19.055c-.858-.072-2.313.039-3.081-.632-.769-.67-1.113-1.999-.08-3.231 1.034-1.233 2.522-.976 3.48-.356M44.764 17.727c1.08-.926 1.72-2.636 3.34-2.717 1.603-.118 2.637 2.055 1.569 3.441-1.015 1.2-2.147 1.313-3.614 1.607l-.551.033M17.574 10.208c-2.89 2.091-4.741 4.207-8.599 4.064-.733-.1-2.662.171-3.26-.142M23.716 9.452c-1.724.782-.528 1.962-4.63 4.705-.728.354-2.092 1-2.74 1.485M28.819 9.358c-1.188 2.53-2.747 4.489-4.914 6.236M34.82 9.783c-1.128 2.04-1.616 5.134-5.245 6.473M39.733 11.673c-.945 1.677-1.325 4.09-3.354 4.677" fill="none" stroke="#000" stroke-linecap="round" stroke-linejoin="round"/><g fill="none" stroke="#000" stroke-linecap="round" stroke-linejoin="round"><path d="M12.046 19.847c-1.472-.433 1.05 1.958 0 0zM38.977 20.414c-.47 2.007 1.5-.831 0 0M18 27.075c4.623 2.969 10.649 1.853 15.374-.253.703-.424 1.343-.967 1.823-1.636"/></g></svg>