<?xml version="1.0" encoding="UTF-8" standalone="no"?>
<svg
   xmlns:dc="http://purl.org/dc/elements/1.1/"
   xmlns:cc="http://creativecommons.org/ns#"
   xmlns:rdf="http://www.w3.org/1999/02/22-rdf-syntax-ns#"
   xmlns:svg="http://www.w3.org/2000/svg"
   xmlns="http://www.w3.org/2000/svg"
   id="svg1762"
   version="1.1"
   viewBox="0 0 47.478683 73.977852"
   height="73.977852mm"
   width="47.478683mm">
  <defs
     id="defs1756" />
  <metadata
     id="metadata1759">
    <rdf:RDF>
      <cc:Work
         rdf:about="">
        <dc:format>image/svg+xml</dc:format>
        <dc:type
           rdf:resource="http://purl.org/dc/dcmitype/StillImage" />
        <dc:title></dc:title>
      </cc:Work>
    </rdf:RDF>
  </metadata>
  <g
     transform="translate(-17.838035,-12.814648)"
     style="display:inline"
     id="head">
    <path
       id="path6427"
       d="m 247.96557,259.14378 c -5.22641,-1.07396 -13.78965,-3.05838 -15.35895,-7.87668 -1.80591,-5.54476 -2.72163,-14.32198 2.16151,-17.64844 5.02188,-3.42097 6.1303,-9.63383 6.76626,-15.32745 0.32917,-2.94701 2.06418,-7.5184 1.9732,-2.11936 -0.10091,5.98836 3.65196,-1.41542 5.9477,0.86072 3.09896,3.07251 3.29114,13.7084 6.40308,11.63622 2.41844,-1.61039 1.09653,-10.59108 3.58584,-3.93106 2.06722,5.53075 3.98911,11.31361 4.16078,17.30498 0.16602,5.79403 0.18502,15.15524 -6.22322,16.52412 -3.89565,0.83216 -8.03965,0.45014 -11.75483,-0.008"
       style="display:inline;fill:#ff2a2a;fill-opacity:1;stroke:none;stroke-width:0.26458332px;stroke-linecap:butt;stroke-linejoin:miter;stroke-opacity:1;enable-background:new"
       transform="translate(-213.31867,-200.852)" />
    <path
       id="path6431"
       d="m 247.96557,259.14378 c -4.73797,-0.60287 -11.20883,-0.79606 -13.32664,-5.56383 -1.56359,-3.52007 -3.3319,-9.36525 -0.0232,-11.69214 2.9241,-2.05641 5.76425,-4.9114 6.74451,-8.37248 1.06634,-3.765 0.90626,4.04815 1.66508,5.43388 1.7606,3.21514 6.51038,-2.05972 7.0552,-0.5082 1.09373,3.11468 2.68076,6.00147 4.36098,8.93787 2.26403,3.95669 0.85188,9.78734 -3.40654,11.47256 -1.62592,0.64344 -2.81618,0.48754 -4.53105,0.29233"
       style="display:inline;fill:#ffff00;fill-opacity:1;stroke:none;stroke-width:0.26458332px;stroke-linecap:butt;stroke-linejoin:miter;stroke-opacity:1;enable-background:new"
       transform="translate(-213.31867,-200.852)" />
    <path
       id="path6136"
       d="m 247.01334,258.75944 c -0.1524,-0.3987 -2.70863,2.76868 -8.56878,-0.563 -2.16994,-1.20081 -4.78875,-3.47355 -5.82976,-6.94487 0,0 0,-10e-6 0,-10e-6 -0.84944,-2.87679 -1.34784,-6.33816 -0.84292,-9.98097 0.41247,-3.04953 1.70603,-6.37642 4.3296,-8.85038 0.25543,-0.33063 0.43662,-0.38535 0.30256,-0.26325 0,0 0,0 0,0 2.9e-4,0.32591 -0.0712,0.24877 -0.0565,-0.19779 0.0876,-0.78285 0.35041,-1.30514 0.6082,-1.56398 0.61526,-0.84011 1.31637,-1.50513 1.97804,-2.11291 0.78246,-0.66707 1.19003,-1.86263 1.69862,-3.19647 0.53357,-1.52642 0.91881,-3.13365 1.28621,-4.8294 0.27301,-1.26755 0.5045,-2.60334 0.83077,-3.97971 l 0,0 c 0.0456,-0.19543 0.10074,-0.41353 0.17522,-0.65072 l 0,0 c 0.34967,-0.11628 0.7826,-0.36721 1.33362,-0.73187 0,0 2e-5,10e-6 2e-5,10e-6 0.13017,0.0579 0.25706,0.10626 0.38555,0.16207 0.10174,0.0442 0.20057,0.10051 0.28831,0.15555 0.41714,0.26171 0.69243,0.43599 0.88727,0.47729 0.43579,1.89923 0.79284,3.84112 1.20829,5.74312 0.77832,3.56323 1.72343,6.74529 3.67992,9.28776 0.42345,0.48866 0.69903,0.90192 0.95934,0.94637 -0.0256,0.0137 0.0371,0.0102 0.0143,0.004 0,0 1e-5,0 1e-5,0 0.15158,-0.055 0.31563,-0.32495 0.56288,-0.66472 0.26045,-0.40371 0.49293,-0.8796 0.74378,-1.38525 0.23182,-0.47534 0.47749,-0.99347 0.79922,-1.53091 0,0 1e-5,0 1e-5,0 0.15039,-0.37052 0.54966,-0.88481 1.30194,-1.3328 1.08131,-0.27832 1.90373,-0.0202 2.30289,0.52465 0,0 0,0 0,0 0.6992,0.78281 1.05766,1.60998 1.29828,2.27678 1.57828,3.89845 3.05804,7.01293 4.06909,10.78938 1.13727,4.1549 1.08693,8.13663 -0.33048,11.4586 0,0 0,0 0,0 -6.68401,15.2793 -13.52007,3.52448 -13.76186,8.19407 0.009,-0.17319 1.62886,-0.0667 4.1671,-1.04413 2.39122,-0.92081 6.20046,-3.30066 7.93264,-7.8338 0,0 0,0 0,0 1.13661,-2.88601 0.97643,-6.35854 -0.12497,-10.18047 -1.04134,-3.53518 -2.53663,-6.4592 -4.22132,-10.44421 -0.30532,-0.65221 -0.51243,-1.22289 -0.82216,-1.48671 0,0 0,0 0,0 -0.0502,0.0796 0.0784,0.005 0.57032,0.008 0.0611,-0.11801 0.0299,0.0706 -0.21555,0.36369 0,0 0,0 0,0 -0.22986,0.38679 -0.4335,0.84165 -0.67599,1.34625 -0.24254,0.51372 -0.51348,1.07305 -0.86195,1.63967 -0.26172,0.47127 -0.68328,1.00975 -1.34617,1.47507 0,0 -1e-5,0 -1e-5,0 -0.72173,0.43992 -1.56969,0.52438 -2.3709,0.22537 -1.01077,-0.46813 -1.66523,-1.16225 -2.07476,-1.78278 -2.2501,-3.05894 -3.37936,-6.58459 -4.2068,-10.27502 -0.44166,-1.96981 -0.78491,-3.9144 -1.17015,-5.75652 0.1509,-0.15933 0.39728,-0.20596 0.67643,-0.0959 0.0587,0.0231 0.11405,0.0558 0.1742,0.11139 0.076,0.0702 0.16583,0.16502 0.26469,0.26746 0,0 1e-5,2e-5 1e-5,2e-5 0.42068,-0.17919 0.7881,-0.20777 1.06871,-0.10853 l 0,0 c -0.0428,0.12925 -0.0814,0.28475 -0.12538,0.46241 l 0,0 c -0.30918,1.2693 -0.54582,2.58922 -0.84436,3.92417 -0.38594,1.73452 -0.81806,3.44413 -1.42282,5.12488 -0.46302,1.40364 -1.12527,2.94059 -2.41435,4.17921 -0.66323,0.61117 -1.26351,1.14102 -1.68737,1.72322 -0.11645,0.25078 -0.23446,0.31039 -0.15321,0.15478 0.009,-0.11379 0.05,0.15233 -0.0377,0.79779 0,0 -1e-5,1e-5 -1e-5,1e-5 -0.326,0.81962 -0.74927,1.25063 -1.02256,1.40329 -2.16542,1.89336 -3.32516,4.74274 -3.79502,7.40573 -0.5579,3.23792 -0.21126,6.44722 0.45442,9.16984 0,0 0,0 0,0 0.6758,2.87316 2.89316,5.03337 4.75815,6.27336 4.32828,2.8015 7.78568,1.48362 7.87323,1.71266 z"
       style="display:inline;fill:#000000;stroke:none;stroke-width:0.26458332px;stroke-linecap:butt;stroke-linejoin:miter;stroke-opacity:1;enable-background:new"
       transform="translate(-213.31867,-200.852)" />
  </g>
  <g
     transform="translate(-17.838035,-12.814648)"
     style="display:inline"
     id="body
">
    <path
       id="path6435"
       d="m 256.07761,262.2132 c -2.35898,-1.9818 -5.96741,-1.6327 -8.89234,-1.40508 -2.79093,0.21719 -4.4539,1.91824 -5.64791,4.91129 -1.10327,2.76559 -0.53232,5.69967 0.0849,8.45078 0.75459,3.36356 4.30446,4.81719 7.2494,5.107 3.01059,0.29627 8.20493,1.92147 9.47151,-1.2784 0.94568,-2.38915 1.756,-4.95759 1.22996,-7.54613 -0.56959,-2.80283 -0.72866,-6.15676 -3.04765,-8.11173 -0.57958,-0.4886 -1.26537,-0.83992 -1.98255,-1.07781"
       style="display:inline;fill:#ff0000;fill-opacity:1;stroke:none;stroke-width:0.26458332px;stroke-linecap:butt;stroke-linejoin:miter;stroke-opacity:1;enable-background:new"
       transform="translate(-213.31867,-200.852)" />
    <path
       id="path6439"
       d="m 250.08493,268.64438 c -1.57001,-0.57154 -3.40764,-0.96315 -4.89646,-0.29231 -1.20301,0.54206 -2.11057,1.39532 -2.26014,2.86708 -0.21934,2.15823 0.51075,4.82484 2.51433,5.71508 1.25989,0.5598 2.74656,0.70756 4.11725,0.5668 1.44943,-0.14885 1.97663,-1.63794 2.3298,-2.82508 0.54528,-1.83292 -0.34644,-3.68434 -1.28168,-5.29311 -0.56578,-0.97323 -1.74975,-0.97717 -2.91391,-1.09302 0,0 -0.24012,0.0623 -0.24012,0.0623"
       style="display:inline;fill:#ffff00;fill-opacity:1;stroke:none;stroke-width:0.26458332px;stroke-linecap:butt;stroke-linejoin:miter;stroke-opacity:1;enable-background:new"
       transform="translate(-213.31867,-200.852)" />
    <path
       id="path6142"
       d="m 242.87923,261.86003 c 0.34465,0.21064 -1.08647,3.30113 -1.11019,8.68073 0,0 0,0 0,0 0.002,1.65771 0.70241,3.52859 2.12358,5.01846 1.26274,1.32694 3.04429,2.33662 5.07288,2.80061 0.89611,0.22692 1.85815,0.23296 2.87974,0.0954 1.15023,-0.15493 2.34771,-0.48901 3.49645,-0.83898 1.06435,-0.26445 1.89637,-1.39003 2.38675,-2.51908 0.549,-1.33194 0.72918,-2.87494 0.82614,-4.28902 0,0 0,-10e-6 0,-10e-6 0.11121,-2.00935 0.20191,-3.44927 -0.0535,-4.93233 -0.14512,-0.81777 -0.34026,-1.47299 -0.67062,-2.00852 -0.38112,-0.64485 -0.95092,-1.06725 -1.45875,-1.2984 -0.85821,-0.49259 -1.91453,-0.31598 -1.91695,-0.50211 0.001,0.10594 0.63295,-0.75649 2.21717,-0.50211 0.73637,0.141 1.64545,0.55363 2.36735,1.41984 0.56015,0.68472 0.97008,1.52895 1.2297,2.48846 0.46581,1.6894 0.54209,3.39376 0.53763,5.39978 0,0 0,0 0,0 0.0125,1.53601 -0.12262,3.32363 -0.74632,5.10341 -0.57051,1.68616 -1.85984,3.36078 -3.89635,4.12345 -1.21629,0.43317 -2.56919,0.81442 -3.9941,0.97816 -1.26017,0.14481 -2.53432,0.11466 -3.80135,-0.16412 -2.53641,-0.60323 -4.71951,-1.95249 -6.27365,-3.71535 -1.79902,-2.04208 -2.50303,-4.54974 -2.34101,-6.74122 0,0 0,-1e-5 0,-1e-5 0.45348,-5.87765 2.66925,-8.87579 3.12541,-8.597 z"
       style="display:inline;fill:#000000;stroke:none;stroke-width:0.26458332px;stroke-linecap:butt;stroke-linejoin:miter;stroke-opacity:1;enable-background:new"
       transform="translate(-213.31867,-200.852)" />
    <path
       id="path6274"
       d="m 244.73958,274.67578 c -0.31484,0.22266 -1.27703,-1.38081 -1.65831,-3.16519 -0.13782,-0.93278 0.13277,-1.93475 0.83267,-2.66639 0.5617,-0.60837 1.15075,-1.01966 1.70319,-1.40817 1.20874,-0.83194 2.88374,-1.01411 4.33761,-0.16119 0.29423,0.17261 0.57152,0.38408 0.82626,0.63302 0.59442,0.66276 1.21728,1.27339 1.80824,2.13504 0.6853,0.94118 0.99363,2.12123 0.83083,3.27284 -0.5224,1.86949 -1.9161,2.63688 -2.66794,2.92143 -0.84387,0.31938 -1.37362,0.26583 -1.46502,0.0923 -0.10951,-0.20793 0.2033,-0.59511 0.76052,-1.18487 0.48754,-0.516 1.38955,-1.3625 1.20538,-2.09554 0.033,-0.44151 -0.26605,-0.93994 -0.69399,-1.53234 -0.4276,-0.54357 -1.05829,-1.0951 -1.73514,-1.83642 -0.0456,-0.0827 -0.11254,-0.15154 -0.1961,-0.20696 -0.41061,-0.27232 -1.16508,-0.20424 -1.61855,0.0652 -0.64962,0.40723 -1.10578,0.61968 -1.46261,0.93177 -0.30662,0.27841 -0.53955,0.5601 -0.53095,0.79811 0.10974,1.8794 -0.42359,3.51172 -0.27609,3.40741 z"
       style="display:inline;fill:#000000;stroke:none;stroke-width:0.26458332px;stroke-linecap:butt;stroke-linejoin:miter;stroke-opacity:1;enable-background:new"
       transform="translate(-213.31867,-200.852)" />
  </g>
  <g
     transform="translate(-17.838035,-12.814648)"
     id="mouth">
    <path
       id="path6196"
       d="m 241.8457,254.41862 c -0.1616,-0.78144 1.66791,-1.63903 4.07666,-1.52925 2.26594,0.10326 3.98515,0.88335 3.98487,1.52925 -3.5e-4,0.80432 -1.90571,1.24238 -4.11854,1.1191 -2.03646,-0.11344 -3.81491,-0.49972 -3.94299,-1.1191 z"
       style="display:inline;fill:#000000;stroke:none;stroke-width:0.26458332px;stroke-linecap:butt;stroke-linejoin:miter;stroke-opacity:1;enable-background:new"
       transform="translate(-213.31867,-200.852)" />
  </g>
  <g
     transform="translate(-17.838035,-12.814648)"
     style="display:inline"
     id="arm-r">
    <path
       id="path6286"
       d="m 260.65592,264.13379 c -0.23074,-0.68382 0.6831,-1.6619 2.22742,-1.92153 1.54954,-0.26051 2.73547,0.36983 2.73353,1.09471 -0.002,0.72095 -1.08523,1.30998 -2.29371,1.51435 -1.2149,0.20546 -2.43535,-3.2e-4 -2.66724,-0.68753 z"
       style="display:inline;fill:#000000;stroke:none;stroke-width:0.26458332px;stroke-linecap:butt;stroke-linejoin:miter;stroke-opacity:1;enable-background:new"
       transform="translate(-213.31867,-200.852)" />
  </g>
  <g
     transform="translate(-17.838035,-12.814648)"
     id="arm-l">
    <path
       id="path6280"
       d="m 240.19205,265.58073 c 0.0667,0.61473 -1.25999,1.49551 -2.55376,2.34412 -0.89991,0.59026 -1.76997,1.08691 -2.47586,1.2677 -0.42472,0.11624 -0.76734,0.0997 -0.96484,-0.0978 -0.19526,-0.19524 -0.21843,-0.54204 -0.0809,-0.97308 0.22488,-0.71145 0.91692,-1.70412 2.0951,-2.43703 2.03835,-1.26799 3.90107,-0.83305 3.98022,-0.10389 z"
       style="display:inline;fill:#000000;stroke:none;stroke-width:0.26458332px;stroke-linecap:butt;stroke-linejoin:miter;stroke-opacity:1;enable-background:new"
       transform="translate(-213.31867,-200.852)" />
  </g>
  <g
     transform="translate(-17.838035,-12.814648)"
     style="display:inline"
     id="leg-r">
    <path
       id="path6232"
       d="m 254.66146,281.08366 c 0.72352,-0.0542 1.39317,1.5462 2.24479,2.92531 0.18536,0.30017 0.36345,0.56623 0.54786,0.82268 0,0 0,0 0,0 0.8257,1.15361 1.38667,2.20523 0.92805,2.65989 -0.36654,0.36338 -1.53079,0.0915 -2.75027,-0.94607 0,0 0,0 0,0 -0.35571,-0.31839 -0.68399,-0.70372 -0.96091,-1.14748 -1.45473,-2.33122 -0.61325,-4.26909 -0.01,-4.31433 z"
       style="display:inline;fill:#000000;stroke:none;stroke-width:0.26458332px;stroke-linecap:butt;stroke-linejoin:miter;stroke-opacity:1;enable-background:new"
       transform="translate(-213.31867,-200.852)" />
  </g>
  <g
     transform="translate(-17.838035,-12.814648)"
     style="display:inline"
     id="leg-l">
    <path
       id="path6226"
       d="m 244.94629,280.05013 c 0.71828,0.43605 0.10043,2.14666 -0.51001,3.8039 -0.27941,0.75857 -0.39881,1.18927 -0.51168,1.77556 -0.16964,0.62881 -0.27298,1.26828 -0.63196,1.44855 -0.33571,0.16858 -1.04533,-0.13377 -1.41488,-1.23571 -0.24007,-0.79626 -0.24081,-1.79822 0.0755,-2.81777 0.74407,-2.39844 2.50573,-3.27037 2.99305,-2.97453 z"
       style="display:inline;fill:#000000;stroke:none;stroke-width:0.26458332px;stroke-linecap:butt;stroke-linejoin:miter;stroke-opacity:1;enable-background:new"
       transform="translate(-213.31867,-200.852)" />
  </g>
  <g
     transform="translate(-17.838035,-12.814648)"
     style="display:inline"
     id="tail">
    <path
       id="path6148"
       d="m 262.30957,271.5752 c 0.0305,-0.33606 1.19209,-0.43462 2.76535,-1.13438 1.60042,-0.71185 3.56816,-2.08505 5.12251,-4.37172 0,0 0,0 0,0 0.2816,-0.45371 0.58383,-0.88069 0.89136,-1.29814 1.1152,-1.51376 1.94434,-2.49159 1.95395,-3.65892 0,0 0,0 0,0 0.33818,-3.8981 -0.6727,-6.66372 -0.19118,-6.90012 0.37667,-0.18493 2.56716,2.20885 2.60192,6.98742 0,0 0,0 0,0 -0.10532,2.01991 -1.05271,3.65557 -2.19292,5.18251 -0.31331,0.41958 -0.61961,0.80597 -0.89443,1.16763 0,0 0,0 0,0 -1.9589,2.86014 -4.72671,4.21172 -6.81193,4.55939 -2.11073,0.35191 -3.27019,-0.25225 -3.24463,-0.53367 z"
       style="display:inline;fill:#000000;stroke:none;stroke-width:0.26458332px;stroke-linecap:butt;stroke-linejoin:miter;stroke-opacity:1;enable-background:new"
       transform="translate(-213.31867,-200.852)" />
    <path
       id="path6463"
       d="m 273.54411,251.10481 c 2.75088,-0.8331 5.53896,-3.60958 5.03093,-6.51472 -0.50118,-2.86598 -1.45037,-5.98355 -3.72036,-7.70823 -0.86245,-0.65527 -1.93038,-4.6137 -2.37763,-1.99305 -0.57548,3.372 -4.13798,5.62837 -3.98868,9.13376 0.0882,2.0701 -1.00828,4.63915 0.629,6.27496 1.4679,1.46658 3.51014,1.55679 5.3136,1.2514 0.30478,-0.0516 0.49888,-0.3389 0.72093,-0.51723"
       style="display:inline;fill:#ffff00;fill-opacity:1;stroke:none;stroke-width:0.26458332px;stroke-linecap:butt;stroke-linejoin:miter;stroke-opacity:1;enable-background:new"
       transform="translate(-213.31867,-200.852)" />
    <path
       id="path6166"
       d="m 271.61132,240.77604 c 0.32193,0.19815 0.19057,1.01094 -0.27062,2.17767 -0.41517,1.0503 -1.24821,2.59091 -1.15024,3.74374 0.005,0.0548 0.0111,0.10935 0.0193,0.1636 -0.0295,0.71433 0.57995,1.50018 1.1226,1.94363 1.18753,0.83218 2.2439,1.98933 1.9326,2.30665 -0.0857,0.0874 -1.3879,0.19876 -2.9105,-0.38525 -1.24547,-0.45958 -2.60843,-1.71393 -2.7852,-3.72491 2e-5,-0.10029 0.002,-0.20013 0.007,-0.2995 0.10176,-2.29228 1.33226,-3.93149 2.15678,-4.79025 0.87349,-0.90977 1.59537,-1.30971 1.87859,-1.13538 z"
       style="display:inline;fill:#000000;stroke:none;stroke-width:0.26458332px;stroke-linecap:butt;stroke-linejoin:miter;stroke-opacity:1;enable-background:new"
       transform="translate(-213.31867,-200.852)" />
    <path
       id="path6172"
       d="m 273.26497,240.36263 c 0.20169,-0.0704 1.43757,0.70735 2.73057,2.07642 0.73498,0.69747 1.62305,1.89053 1.74151,3.62119 0.003,0.0913 0.005,0.18338 0.004,0.27608 -0.0113,1.66028 -0.66599,3.12487 -1.64807,4.10725 -0.97913,0.87278 -2.02903,1.03092 -2.4239,1.09785 -0.48977,0.083 -0.86759,0.13255 -1.02437,-0.0167 -0.17341,-0.16504 -0.0993,-0.56787 0.34468,-1.08712 0.42429,-0.49625 1.23616,-0.95142 1.40637,-1.44737 0.43338,-0.67057 0.64428,-1.57222 0.69086,-2.70882 0.003,-0.0632 0.005,-0.1263 0.006,-0.18913 0.0836,-0.61107 -0.4681,-1.48287 -0.88438,-2.24832 -1.12122,-1.76711 -1.56528,-3.26446 -0.94356,-3.48135 z"
       style="display:inline;fill:#000000;stroke:none;stroke-width:0.26458332px;stroke-linecap:butt;stroke-linejoin:miter;stroke-opacity:1;enable-background:new"
       transform="translate(-213.31867,-200.852)" />
  </g>
  <g
     transform="translate(-17.838035,-12.814648)"
     style="display:inline"
     id="brow-r">
    <path
       id="path6268"
       d="m 248.25358,246.77051 c -0.37237,-0.71347 0.80257,-1.81982 2.57056,-2.24812 1.5389,-0.37281 2.94906,-0.1762 3.21721,0.38777 0.34622,0.72819 -0.86043,1.78361 -2.59584,2.1974 -1.49915,0.35745 -2.90486,0.213 -3.19193,-0.33705 z"
       style="fill:#000000;stroke:none;stroke-width:0.26458332px;stroke-linecap:butt;stroke-linejoin:miter;stroke-opacity:1;enable-background:new"
       transform="translate(-213.31867,-200.852)" />
  </g>
  <g
     transform="translate(-17.838035,-12.814648)"
     style="display:inline"
     id="brow-l">
    <path
       id="path6262"
       d="m 234.19759,244.29004 c 0.26195,-0.58154 1.61365,-0.80088 3.08149,-0.47272 1.67881,0.37533 2.83002,1.40197 2.49957,2.12637 -0.26453,0.57989 -1.61585,0.79276 -3.07863,0.46641 -1.67455,-0.3736 -2.82951,-1.39392 -2.50243,-2.12006 z"
       style="fill:#000000;stroke:none;stroke-width:0.26458332px;stroke-linecap:butt;stroke-linejoin:miter;stroke-opacity:1;enable-background:new"
       transform="translate(-213.31867,-200.852)" />
  </g>
  <g
     transform="translate(-17.838035,-12.814648)"
     style="display:inline"
     id="eye-r">
    <path
       id="path6220"
       d="m 252.18099,248.83757 c 0.78245,-0.0636 1.22447,0.37371 1.20396,1.07617 -0.0181,0.62139 -0.28571,1.33635 -0.54383,1.56444 0,0 0,0 0,0 0.74326,-0.008 -0.24675,0.0466 -0.24672,0.0466 3e-5,0 -0.99038,-0.0476 -0.24712,-0.0559 0,0 0,0 0,0 -0.16947,-0.1185 -0.64353,-0.52317 -0.86873,-0.97562 -0.39451,-0.79259 -0.10585,-1.58994 0.70244,-1.65569 z"
       style="fill:#000000;stroke:none;stroke-width:0.26458332px;stroke-linecap:butt;stroke-linejoin:miter;stroke-opacity:1;enable-background:new"
       transform="translate(-213.31867,-200.852)" />
  </g>
  <g
     transform="translate(-17.838035,-12.814648)"
     style="display:inline"
     id="eye-l">
    <path
       id="path6202"
       d="m 236.88476,247.59733 c 0.35511,0.099 0.63008,0.33725 0.82646,0.61203 0.19785,0.27683 0.26752,0.51538 0.25526,0.61285 -0.006,0.0516 -0.0315,0.0705 -0.0576,0.0999 0,0 0,0 0,0 -0.19489,0.14738 -0.22551,0.77149 -0.6107,1.15569 -0.34673,0.34585 -1.0007,0.5808 -1.5921,-0.13043 0,0 0,0 0,0 -0.16594,-0.26873 -0.27868,-0.58807 -0.31661,-0.90748 -0.15743,-1.32551 0.89575,-1.60962 1.4953,-1.44256 z"
       style="fill:#000000;stroke:none;stroke-width:0.26458332px;stroke-linecap:butt;stroke-linejoin:miter;stroke-opacity:1;enable-background:new"
       transform="translate(-213.31867,-200.852)" />
  </g>
</svg>
