<svg xmlns="http://www.w3.org/2000/svg" viewBox="0 0 210 297" height="297mm" width="210mm"><path d="M19.126 31.058c-.857-.072-2.311.039-3.08-.632-.768-.67-1.112-1.999-.08-3.231 1.034-1.233 2.522-.976 3.48-.356M59.601 29.73c1.08-.926 1.72-2.636 3.34-2.717 1.603-.118 2.637 2.055 1.57 3.441-1.016 1.2-2.148 1.313-3.615 1.607l-.551.033" fill="#ffdfc2" fill-opacity=".99"/><path d="M59.601 29.73c-2.425-6.612-5.301-10.636-10.305-13.593-4.336-2.562-8.434-3.773-13.5-3.621-7.795.117-12.983 4.612-15.503 11.247-1.42 3.678-1.78 8.02.142 11.42 2.395 4.892 7.434 7.896 12.611 9.045 5.749 1.55 11.09 1.417 16.447-.252 5.976-1.903 11.444-5.274 10.84-11.162a11.079 11.079 0 0 0-.732-3.084z" fill="#ffdfc2" fill-opacity=".99"/><path d="M19.493 25.28c1.157-4.789 3.486-8.133 7.956-10.613 2.27-1.127 4.862-1.714 7.326-2.13 3.695.227 7.555.303 11.016 1.739 3.494 1.77 6.916 3.854 9.301 7.045 1.809 2.182 1.678 1.5 2.786 4.1.372 3.026-1.238.947-2.703 3.251-2.441.019-7.614-1.477-10.763-.413-1.91-.962-3.204-1.679-5.67-.662-2.997-1.624-4.824 2.207-7.559.048-.241-2.016-2.607-.789-5.216-1.618-1.838.103-5.239 1.802-6.474-.747" fill="#fd5"/><path d="M56.366 40.732c-1.374-.116-2.91-.865-3.054-2.401-.397-1.409.368-2.822 1.57-3.55 1.241-.888 3.172-1.364 4.431-.272.994.957.647 2.593-.335 3.422-1.119.695-1.462 2.347-2.612 2.801zM26.553 41.535c1.584.187 2.565-1.747 2.045-3.103-.532-1.955-2.13-3.415-3.76-4.503-1.527-1.09-3.644.205-3.21 2.087.063 2.03 1.918 3.186 3.118 4.576.491.363 1.094 1.594 1.807.943z" opacity=".8" fill="#f79c89" fill-opacity=".475"/><path d="M59.601 29.73c-2.425-6.612-5.301-10.636-10.305-13.593-4.336-2.562-8.434-3.773-13.5-3.621-7.795.117-12.983 4.612-15.503 11.247-1.42 3.678-1.78 8.02.142 11.42 2.395 4.892 7.434 7.896 12.611 9.045 5.749 1.55 11.09 1.417 16.447-.252 5.976-1.903 11.444-5.274 10.84-11.162a11.079 11.079 0 0 0-.732-3.084z" fill="none" stroke="#000" stroke-linecap="round" stroke-linejoin="round"/><path d="M19.126 31.058c-.857-.072-2.311.039-3.08-.632-.768-.67-1.112-1.999-.08-3.231 1.034-1.233 2.522-.976 3.48-.356M59.601 29.73c1.08-.926 1.72-2.636 3.34-2.717 1.603-.118 2.637 2.055 1.57 3.441-1.016 1.2-2.148 1.313-3.615 1.607l-.551.033M32.411 22.211c-2.89 2.091-4.741 4.207-8.599 4.064-.732-.1-2.661.171-3.26-.142M38.554 21.455c-1.724.782-.528 1.962-4.632 4.705-.727.354-2.09 1-2.739 1.485M43.656 21.36c-1.188 2.53-2.746 4.49-4.913 6.237M49.657 21.786c-1.128 2.04-1.615 5.134-5.245 6.473M54.57 23.676c-.945 1.677-1.325 4.09-3.354 4.677" fill="none" stroke="#000" stroke-linecap="round" stroke-linejoin="round"/><g fill="none" stroke="#000" stroke-linecap="round" stroke-linejoin="round"><path d="M26.884 31.85c-1.473-.433 1.05 1.958 0 0zM53.814 32.417c-.47 2.007 1.5-.831 0 0M32.837 39.078c4.623 2.969 10.65 1.853 15.374-.253.703-.424 1.343-.967 1.824-1.636"/></g></svg>